PathFileType   4   (X/Y/Z)
DataRate	CameraRate	NumFrames	NumMarkers	Units	OrigDataRate	OrigDataStartFrame	OrigNumFrames
120.0	120.0	4	37	mm	120.0	94	186
Frame#	Time	midhip	hip_r	hip_l	knee_r	knee_l	ankle_r	ankle_l	midasis	asis_r	asis_l	psis_r	psis_l	epicondLat_r	epicondLat_l	epicondMed_r	epicondMed_l	malleolusLat_r	malleolusLat_l	malleolusMedv_r	malleolusMedv_l	neck	subclavicle_r	subclavicle_l	sternalnotch	xyphoidprocess	thighwand_r	thighwand_l	upperleg1_r	upperleg1_l	upperleg2_r	upperleg2_l	shankwand_r	shankwand_l	lowerleg1_r	lowerleg1_l	toe_r	toe_l
 	 	X1	Y1	Z1	X2	Y2	Z2	X3	Y3	Z3	X4	Y4	Z4	X5	Y5	Z5	X6	Y6	Z6	X7	Y7	Z7	X8	Y8	Z8	X9	Y9	Z9	X10	Y10	Z10	X11	Y11	Z11	X12	Y12	Z12	X13	Y13	Z13	X14	Y14	Z14	X15	Y15	Z15	X16	Y16	Z16	X17	Y17	Z17	X18	Y18	Z18	X19	Y19	Z19	X20	Y20	Z20	X21	Y21	Z21	X22	Y22	Z22	X23	Y23	Z23	X24	Y24	Z24	X25	Y25	Z25	X26	Y26	Z26	X27	Y27	Z27	X28	Y28	Z28	X29	Y29	Z29	X30	Y30	Z30	X31	Y31	Z31	X32	Y32	Z32	X33	Y33	Z33	X34	Y34	Z34	X35	Y35	Z35	X36	Y36	Z36	X37	Y37	Z37

	94	1.20000	1799.470	891.156	-265.502	1795.639	868.084	-197.935	1788.626	868.779	-348.200	1914.607	473.703	-193.370	1687.557	463.988	-323.934	1954.138	70.756	-209.279	1475.778	126.479	-311.000	1883.227	950.303	-276.941	1888.786	949.753	-157.848	1877.669	950.853	-396.034	1699.424	1000.262	-231.081	1702.365	999.722	-316.267	1924.600	477.383	-135.847	1693.283	459.111	-381.445	1879.908	461.512	-244.151	1673.199	457.509	-266.488	1946.041	68.417	-170.177	1461.077	134.352	-346.255	1959.429	86.463	-237.612	1484.549	139.185	-283.681	1695.270	1419.366	-248.443	1820.967	1335.478	-203.402	1826.417	1340.652	-307.626	1806.759	1346.642	-253.155	1880.973	1179.777	-269.231	1944.620	576.882	-64.701	1854.862	506.538	-325.618	1933.961	644.400	-128.441	1801.973	577.785	-368.537	1948.570	560.227	-155.006	1759.475	501.017	-361.795	1961.425	201.639	-81.200	1555.818	236.135	-432.997	1946.791	169.478	-153.331	1521.234	215.210	-362.341	2080.350	40.530	-203.338	1562.086	40.856	-322.152
	95	1.20833	1804.432	891.166	-264.053	1801.351	868.947	-196.836	1794.255	869.612	-347.097	1917.765	474.035	-192.448	1695.421	463.944	-323.530	1954.276	70.570	-209.092	1479.469	129.059	-311.159	1888.850	951.201	-275.903	1894.477	950.675	-156.727	1883.222	951.728	-395.080	1705.121	1001.048	-229.908	1708.180	1000.443	-315.038	1927.444	477.528	-134.860	1700.669	459.321	-381.107	1883.540	462.329	-243.132	1680.537	458.130	-266.473	1946.210	68.227	-169.983	1464.474	137.435	-346.174	1959.734	86.379	-237.379	1488.764	141.741	-283.722	1700.047	1420.004	-247.214	1826.088	1336.505	-201.767	1831.511	1341.853	-306.729	1811.920	1347.646	-251.848	1886.685	1181.129	-268.165	1947.710	576.611	-63.371	1863.184	507.214	-326.497	1938.220	644.267	-126.788	1809.979	577.630	-368.924	1952.203	560.620	-153.120	1766.651	500.882	-362.088	1962.691	201.274	-80.825	1559.597	238.878	-432.982	1947.566	169.029	-152.979	1525.875	217.679	-361.953	2080.352	40.454	-203.268	1563.052	40.867	-321.877
	96	1.21667	1811.251	892.764	-262.379	1807.068	869.778	-195.707	1799.905	870.381	-345.964	1920.811	474.291	-191.517	1703.491	463.812	-323.252	1954.423	70.395	-208.918	1483.389	131.580	-311.332	1894.467	952.072	-274.844	1900.154	951.594	-155.544	1888.780	952.550	-394.144	1710.779	1001.759	-228.702	1714.018	1001.099	-313.803	1930.184	477.598	-133.867	1708.171	459.482	-380.901	1886.158	463.926	-242.557	1689.225	457.205	-266.270	1946.352	68.039	-169.811	1468.053	140.494	-346.064	1959.994	86.437	-237.081	1493.163	143.991	-283.958	1705.027	1420.474	-246.181	1831.195	1337.754	-200.431	1836.507	1343.037	-305.507	1817.043	1348.562	-250.531	1892.450	1182.600	-266.793	1950.704	576.356	-62.043	1871.657	507.784	-327.739	1942.680	644.499	-125.129	1817.589	577.655	-369.375	1955.573	560.920	-151.607	1774.233	500.376	-362.468	1963.811	200.862	-80.461	1563.436	241.713	-433.004	1947.927	168.385	-152.817	1530.172	220.351	-361.523	2080.379	40.343	-203.218	1564.052	40.827	-321.566
	97	1.22500	1816.818	893.220	-260.664	1812.796	870.585	-194.511	1805.553	871.078	-344.765	1923.746	474.471	-190.587	1711.764	463.588	-323.105	1954.586	70.241	-208.769	1487.547	134.061	-311.530	1900.065	952.918	-273.750	1905.823	952.527	-154.300	1894.306	953.310	-393.201	1716.393	1002.392	-227.472	1719.820	1001.687	-312.570	1932.836	477.588	-132.881	1715.798	459.591	-380.826	1888.520	465.315	-242.324	1699.258	455.180	-266.161	1946.483	67.865	-169.670	1471.828	143.548	-345.938	1960.058	86.296	-236.920	1497.360	145.842	-284.210	1710.295	1420.929	-244.969	1836.260	1338.573	-199.358	1841.793	1343.841	-304.110	1822.139	1349.390	-249.238	1897.893	1183.498	-265.410	1953.634	576.117	-60.742	1880.259	508.246	-329.305	1946.996	644.627	-123.592	1825.196	578.264	-369.664	1958.847	560.617	-150.528	1782.421	499.948	-362.966	1964.808	200.411	-80.115	1567.348	244.629	-433.058	1948.116	167.646	-152.673	1534.499	222.706	-361.486	2080.420	40.203	-203.185	1565.085	40.736	-321.236
